<?xml version="1.0" encoding="UTF-8"?>
<svg version="1.1" xmlns="http://www.w3.org/2000/svg" width="736" height="736">
<path d="M0 0 C242.88 0 485.76 0 736 0 C736 242.88 736 485.76 736 736 C493.12 736 250.24 736 0 736 C0 493.12 0 250.24 0 0 Z " fill="#000000" transform="translate(0,0)"/>
<path d="M0 0 C8.32852099 6.69902775 11.30968458 14.48891815 14.875 24.3125 C17.91857978 16.85392503 20.49739145 9.55847825 22.19921875 1.67578125 C22.875 -0.6875 22.875 -0.6875 24.875 -2.6875 C28.85253863 -2.4033901 31.89782132 -0.19103662 34.875 2.3125 C35.39586925 6.80635778 34.58804656 9.57113441 32.390625 13.46484375 C31.60558594 14.87733398 31.60558594 14.87733398 30.8046875 16.31835938 C30.25039063 17.28580078 29.69609375 18.25324219 29.125 19.25 C28.58617187 20.21357422 28.04734375 21.17714844 27.4921875 22.16992188 C23.20263806 29.82310582 23.20263806 29.82310582 21.55664062 32.28173828 C19.10315579 36.0052499 18.48828846 38.59964469 19.32861328 43.00048828 C19.5089209 43.76345215 19.68922852 44.52641602 19.875 45.3125 C20.08237793 46.24690918 20.28975586 47.18131836 20.50341797 48.14404297 C21.23980946 51.35495247 22.02023508 54.55244157 22.8125 57.75 C23.34314669 59.91519345 23.87310665 62.08055533 24.40234375 64.24609375 C24.65685303 65.27782715 24.9113623 66.30956055 25.17358398 67.37255859 C25.80351037 70.0128557 26.36362036 72.65716528 26.90625 75.31640625 C27.61367826 78.54737465 28.54442659 81.05482888 30.4375 83.8125 C31.08912109 84.78703125 31.08912109 84.78703125 31.75390625 85.78125 C32.79058269 87.2790236 32.79058269 87.2790236 33.875 88.3125 C38.92800874 88.72499051 42.51920208 87.9382047 47.078125 85.96875 C48.875 85.3125 48.875 85.3125 51.875 85.3125 C52.4375 88.4375 52.4375 88.4375 51.875 92.3125 C44.55715677 100.00852634 29.72699514 105.35886652 19.3984375 106.61328125 C14.76713615 106.63854289 11.5029074 106.51359476 7.875 103.3125 C5.49536926 99.10975891 4.16726858 95.11176804 3.0859375 90.41796875 C2.78429687 89.13341797 2.48265625 87.84886719 2.171875 86.52539062 C1.86408218 85.18370862 1.55679631 83.84191022 1.25 82.5 C0.63739733 79.84654627 0.01889263 77.19461212 -0.6015625 74.54296875 C-0.87049316 73.37145264 -1.13942383 72.19993652 -1.41650391 70.99291992 C-1.85849356 68.41136313 -1.85849356 68.41136313 -3.125 67.3125 C-3.71925781 68.11171875 -4.31351562 68.9109375 -4.92578125 69.734375 C-29.34496146 102.2384186 -29.34496146 102.2384186 -47.125 105.3125 C-51.0655381 105.67733825 -54.98124108 105.78745048 -58.9375 105.8125 C-59.91614014 105.81894531 -60.89478027 105.82539063 -61.90307617 105.83203125 C-69.14076899 105.70381048 -75.053911 104.75541171 -80.875 100.125 C-88.96067638 90.01790453 -88.91783722 78.72535765 -88.125 66.3125 C-87.48151379 62.16296024 -86.42084469 58.30100899 -85.125 54.3125 C-84.85816406 53.36503906 -84.59132813 52.41757812 -84.31640625 51.44140625 C-78.61121823 32.34804368 -66.89109294 14.9379793 -49.25390625 5.08203125 C-34.28554008 -2.88241072 -16.03249303 -8.65754623 0 0 Z " fill="#F9F9F9" transform="translate(385.125,284.6875)"/>
<path d="M0 0 C11.69249812 5.95655565 14.73557764 19.94257299 18.55908203 31.54638672 C18.82833496 32.3767041 19.09758789 33.20702148 19.375 34.0625 C19.63780762 34.85930176 19.90061523 35.65610352 20.17138672 36.47705078 C23.29225781 46.38461133 23.29225781 46.38461133 20.85546875 51.31640625 C18.93342013 53.90464503 16.99889023 56.47015456 15 59 C14.38125 59.78914795 14.38125 59.78914795 13.75 60.59423828 C7.87790383 68.01955632 1.86883664 74.60838971 -6 80 C-6.64195312 80.45246094 -7.28390625 80.90492188 -7.9453125 81.37109375 C-13.67303432 84.83408874 -20.49856033 85.16957116 -27 84 C-30.80708674 81.24593725 -32.86935461 77.50851131 -34 73 C-34.3955086 68.86653309 -34.37365869 64.77400558 -34.3125 60.625 C-34.31572266 59.53960937 -34.31894531 58.45421875 -34.32226562 57.3359375 C-34.27981554 50.94526966 -33.67575325 45.1609247 -32 39 C-31.59201172 37.29263672 -31.59201172 37.29263672 -31.17578125 35.55078125 C-27.85024098 23.07624333 -22.62490757 7.93185158 -11.03515625 0.7890625 C-7.38583606 -0.62583707 -3.84250483 -0.54129198 0 0 Z " fill="#030303" transform="translate(358,293)"/>
<path d="M0 0 C3.03978021 0.68164768 4.80055419 2.23591662 6.93359375 4.43359375 C8.53446002 7.63532629 8.43276464 10.95936434 7.93359375 14.43359375 C6.13995464 17.24362835 4.9147844 18.94299843 1.93359375 20.43359375 C-1.07720617 20.77909538 -3.15905254 21.00061111 -6.06640625 20.43359375 C-9.31800267 17.79167166 -10.6745803 16.26425596 -11.54296875 12.20703125 C-11.80859561 8.02690329 -11.39090134 5.93047685 -9.06640625 2.37109375 C-5.72174711 0.21100139 -3.89742861 -0.24312882 0 0 Z " fill="#E5E5E5" transform="translate(439.06640625,429.56640625)"/>
<path d="M0 0 C12.48323908 -0.37078928 12.48323908 -0.37078928 14.89453125 1.359375 C16.48941427 3.7263392 16.40940413 5.20240513 16 8 C14.5 10.3125 14.5 10.3125 13 12 C13.66 12.94875 14.32 13.8975 15 14.875 C17 18 17 18 17 20 C14.75 20.375 14.75 20.375 12 20 C8 15.02702703 8 15.02702703 8 12 C6.68 12 5.36 12 4 12 C4 14.64 4 17.28 4 20 C2.68 20 1.36 20 0 20 C0 13.4 0 6.8 0 0 Z " fill="#F3F3F3" transform="translate(389,430)"/>
<path d="M0 0 C11.46432574 -0.36981696 11.46432574 -0.36981696 13.8671875 1.2890625 C15.74119749 4.1194638 15.29814274 6.72042981 15 10 C13 12 13 12 10.8359375 12.1953125 C9.61777344 12.16050781 9.61777344 12.16050781 8.375 12.125 C7.55773437 12.10695313 6.74046875 12.08890625 5.8984375 12.0703125 C5.27195312 12.04710937 4.64546875 12.02390625 4 12 C4 14.64 4 17.28 4 20 C2.68 20 1.36 20 0 20 C0 13.4 0 6.8 0 0 Z " fill="#D8D8D8" transform="translate(350,430)"/>
<path d="M0 0 C10.34909307 -0.36961047 10.34909307 -0.36961047 13.33203125 1.32421875 C15 3 15 3 15.4375 6 C15 9 15 9 14 10.875 C10.74686316 12.70488947 7.68609891 12.18128355 4 12 C4 14.64 4 17.28 4 20 C2.68 20 1.36 20 0 20 C0 13.4 0 6.8 0 0 Z " fill="#E4E4E4" transform="translate(206,430)"/>
<path d="M0 0 C3.14822487 1.28226969 3.33715937 1.85077944 4.6953125 4.8359375 C5.31316771 6.39186966 5.9101213 7.95622917 6.48828125 9.52734375 C6.79958984 10.31689453 7.11089844 11.10644531 7.43164062 11.91992188 C9.67578125 17.70536573 9.67578125 17.70536573 9.67578125 20.08984375 C8.02578125 20.08984375 6.37578125 20.08984375 4.67578125 20.08984375 C4.34578125 18.43984375 4.01578125 16.78984375 3.67578125 15.08984375 C1.03578125 15.41984375 -1.60421875 15.74984375 -4.32421875 16.08984375 C-4.65421875 17.40984375 -4.98421875 18.72984375 -5.32421875 20.08984375 C-6.64421875 20.08984375 -7.96421875 20.08984375 -9.32421875 20.08984375 C-8.93955278 14.44807626 -6.66680243 0.25770833 0 0 Z " fill="#DFDFDF" transform="translate(137.32421875,429.91015625)"/>
<path d="M0 0 C1.32 0 2.64 0 4 0 C5.17578304 2.57952403 6.340791 5.16303938 7.5 7.75 C7.83386719 8.47960937 8.16773438 9.20921875 8.51171875 9.9609375 C8.82753906 10.66992188 9.14335937 11.37890625 9.46875 12.109375 C9.76201172 12.75874023 10.05527344 13.40810547 10.35742188 14.07714844 C11 16 11 16 11 20 C9.68 20 8.36 20 7 20 C6.67 18.35 6.34 16.7 6 15 C1.94914321 15.24631557 1.94914321 15.24631557 -2 16 C-3.5899433 17.92064793 -3.5899433 17.92064793 -4 20 C-5.32 20 -6.64 20 -8 20 C-6.12849037 12.84870304 -3.50213658 6.50594543 0 0 Z " fill="#E3E3E3" transform="translate(290,430)"/>
<path d="M0 0 C4.95 0 9.9 0 15 0 C15 1.32 15 2.64 15 4 C11.37 4 7.74 4 4 4 C4 5.32 4 6.64 4 8 C7.3 8 10.6 8 14 8 C14 8.99 14 9.98 14 11 C10.7 11 7.4 11 4 11 C4 12.98 4 14.96 4 17 C7.63 17 11.26 17 15 17 C15 17.99 15 18.98 15 20 C10.05 20 5.1 20 0 20 C0 13.4 0 6.8 0 0 Z " fill="#DDDDDD" transform="translate(505,430)"/>
<path d="M0 0 C1.32 0 2.64 0 4 0 C4 2.64 4 5.28 4 8 C6.64 8 9.28 8 12 8 C12 5.36 12 2.72 12 0 C13.32 0 14.64 0 16 0 C16 6.6 16 13.2 16 20 C14.68 20 13.36 20 12 20 C12 17.03 12 14.06 12 11 C9.36 11 6.72 11 4 11 C4 13.97 4 16.94 4 20 C2.68 20 1.36 20 0 20 C0 13.4 0 6.8 0 0 Z " fill="#E4E4E4" transform="translate(244,430)"/>
<path d="M0 0 C2.5 1.875 2.5 1.875 4 4 C4 4.66 4 5.32 4 6 C1.41931567 5.48386313 -1.13694286 4.96496811 -3.6875 4.3125 C-4.450625 4.209375 -5.21375 4.10625 -6 4 C-8.15705515 5.7564331 -8.15705515 5.7564331 -8.265625 7.875 C-8.26046875 8.57625 -8.2553125 9.2775 -8.25 10 C-8.25515625 10.70125 -8.2603125 11.4025 -8.265625 12.125 C-8.15705515 14.2435669 -8.15705515 14.2435669 -6 16 C-4.68 16 -3.36 16 -2 16 C-1.34 15.01 -0.68 14.02 0 13 C1.32 13.33 2.64 13.66 4 14 C2.63016497 17.16115776 2.0109362 17.9927092 -1 20 C-4.375 20.5 -4.375 20.5 -8 20 C-11.17546049 17.36504343 -12.61527733 15.78286116 -13.48046875 11.7734375 C-13.73910164 7.59337086 -13.3246685 5.49714863 -11 1.9375 C-6.83994881 -0.74919973 -4.89701312 -0.6995733 0 0 Z " fill="#E4E4E4" transform="translate(556,430)"/>
<path d="M0 0 C5.28 0 10.56 0 16 0 C16 1.32 16 2.64 16 4 C14.02 4 12.04 4 10 4 C10 9.28 10 14.56 10 20 C8.68 20 7.36 20 6 20 C6 14.72 6 9.44 6 4 C4.02 4 2.04 4 0 4 C0 2.68 0 1.36 0 0 Z " fill="#DBDBDB" transform="translate(582,430)"/>
<path d="M0 0 C2.50907308 2.24951379 2.95656309 3.65250472 3.375 7 C2.95656309 10.34749528 2.50907308 11.75048621 0 14 C-2.5 14.5 -2.5 14.5 -5 14 C-7.77334669 11.60918389 -7.98943126 10.100403 -8.375 6.4375 C-8 3 -8 3 -6.8125 1.0625 C-4.31219126 -0.40319823 -2.84869344 -0.49852135 0 0 Z " fill="#171717" transform="translate(440,433)"/>
<path d="M0 0 C1.32 0 2.64 0 4 0 C4.08089542 2.77141717 4.14044062 5.54047819 4.1875 8.3125 C4.22520508 9.49102539 4.22520508 9.49102539 4.26367188 10.69335938 C4.27817383 11.8293457 4.27817383 11.8293457 4.29296875 12.98828125 C4.31653442 14.03302612 4.31653442 14.03302612 4.34057617 15.09887695 C3.88851587 17.62231318 3.0383587 18.48254546 1 20 C-2.5625 20.3125 -2.5625 20.3125 -6 20 C-8 18 -8 18 -8.125 15.375 C-8.08375 14.59125 -8.0425 13.8075 -8 13 C-6.68 13.33 -5.36 13.66 -4 14 C-4 14.99 -4 15.98 -4 17 C-3.01 16.67 -2.02 16.34 -1 16 C-0.67 10.72 -0.34 5.44 0 0 Z " fill="#E6E6E6" transform="translate(477,430)"/>
<path d="M0 0 C1.32 0 2.64 0 4 0 C4 5.28 4 10.56 4 16 C7.3 16 10.6 16 14 16 C14 16.99 14 17.98 14 19 C9.38 19 4.76 19 0 19 C0 12.73 0 6.46 0 0 Z " fill="#E9E9E9" transform="translate(169,431)"/>
<path d="M0 0 C2.10353495 -0.0810206 4.20795952 -0.13919907 6.3125 -0.1875 C7.48425781 -0.22230469 8.65601563 -0.25710938 9.86328125 -0.29296875 C13 0 13 0 14.89453125 1.35546875 C16.47793508 3.71099176 16.41637778 5.22414816 16 8 C14.625 9.8125 14.625 9.8125 13 11 C12.34 11 11.68 11 11 11 C11 10.34 11 9.68 11 9 C8.69 9 6.38 9 4 9 C4 7.02 4 5.04 4 3 C5.32 2.67 6.64 2.34 8 2 C5.36 1.67 2.72 1.34 0 1 C0 0.67 0 0.34 0 0 Z " fill="#C8C8C8" transform="translate(389,430)"/>
<path d="M0 0 C0.66 0.33 1.32 0.66 2 1 C1.505 1.515625 1.01 2.03125 0.5 2.5625 C-1.59455264 5.96614804 -1.46846543 8.05150565 -1 12 C0.13779389 14.53171454 1.47346175 16.6624883 3 19 C-0.70476303 18.49935635 -2.68586269 17.99047543 -5 15 C-5.80200363 11.05681549 -6.09587232 6.71991073 -3.875 3.234375 C-2.5 1.875 -2.5 1.875 0 0 Z " fill="#F1F1F1" transform="translate(434,431)"/>
<path d="M0 0 C3.125 -0.5625 3.125 -0.5625 7 0 C9.76462465 2.96852322 13 6.80045287 13 11 C10.75 11.375 10.75 11.375 8 11 C4 6.02702703 4 6.02702703 4 3 C2.68 2.67 1.36 2.34 0 2 C0 1.34 0 0.68 0 0 Z " fill="#E3E3E3" transform="translate(393,439)"/>
<path d="M0 0 C0.66 0.33 1.32 0.66 2 1 C-2.95 5.95 -7.9 10.9 -13 16 C-13 10.79628205 -8.49504984 7.5790344 -5 4 C-3.37707762 2.6137538 -1.7331451 1.24569804 0 0 Z " fill="#D4D4D4" transform="translate(329,294)"/>
<path d="M0 0 C1.98 0 3.96 0 6 0 C6.5625 1.9375 6.5625 1.9375 7 4 C6 5 6 5 2.9375 5.0625 C1.4834375 5.0315625 1.4834375 5.0315625 0 5 C0 3.35 0 1.7 0 0 Z " fill="#151515" transform="translate(210,434)"/>
<path d="M0 0 C2.31 0 4.62 0 7 0 C7.33 1.32 7.66 2.64 8 4 C5.36 4 2.72 4 0 4 C0 2.68 0 1.36 0 0 Z " fill="#101010" transform="translate(393,434)"/>
<path d="M0 0 C1.32 0.33 2.64 0.66 4 1 C4 1.99 4 2.98 4 4 C4.99 4.33 5.98 4.66 7 5 C6.34 5 5.68 5 5 5 C5 5.66 5 6.32 5 7 C1.125 6.125 1.125 6.125 0 5 C-0.04063832 3.33382885 -0.042721 1.66611905 0 0 Z " fill="#D5D5D5" transform="translate(469,443)"/>
<path d="M0 0 C1.98 0 3.96 0 6 0 C5.67 1.65 5.34 3.3 5 5 C3.35 5 1.7 5 0 5 C0 3.35 0 1.7 0 0 Z " fill="#0C0C0C" transform="translate(355,434)"/>
<path d="M0 0 C5.5 -0.36666667 5.5 -0.36666667 7.875 1.375 C9 3 9 3 9 5 C5.44219804 4.39009109 2.3171411 3.4216319 -1 2 C-0.67 1.34 -0.34 0.68 0 0 Z " fill="#EFEFEF" transform="translate(551,431)"/>
<path d="M0 0 C0.66 0 1.32 0 2 0 C2.33 1.98 2.66 3.96 3 6 C1.68 6 0.36 6 -1 6 C-0.67 4.02 -0.34 2.04 0 0 Z " fill="#272727" transform="translate(136,436)"/>
<path d="M0 0 C1.5 1.3125 1.5 1.3125 3 3 C3 3.99 3 4.98 3 6 C1.68 6 0.36 6 -1 6 C-0.67 4.02 -0.34 2.04 0 0 Z " fill="#212121" transform="translate(291,436)"/>
</svg>
